<svg xmlns="http://www.w3.org/2000/svg" width="16" height="16" viewBox="0 0 16 16">
  <path fill="#D8201C" fill-rule="evenodd" d="M72.0795429,14.2883048 C71.6033524,12.9481143 70.318019,12.0025905 68.8589714,12.0025905 C67.3999238,12.0025905 66.1145905,12.9481143 65.6384,14.2883048 L64.2875429,14.2883048 C63.0273524,14.2883048 62.0018286,15.3138286 62.0018286,16.574019 C62.0018286,17.8349714 63.0273524,18.8597333 64.2875429,18.8597333 L67.3351619,18.8597333 L67.3351621,22.0339358 L70.3827814,22.0339358 L70.382781,18.8597333 L73.4304,18.8597333 C74.6905905,18.8597333 75.7161143,17.8349714 75.7161143,16.574019 C75.7161143,15.3138286 74.6905905,14.2883048 73.4304,14.2883048 L72.0795429,14.2883048 Z M71.9884952,23.5221429 C71.8963048,23.2135714 71.5968762,23 71.2555429,23 L66.4624,23 C66.1218286,23 65.8216381,23.2135714 65.7294476,23.5221429 C65.3972571,24.635 64.1081143,25.8564286 62.9957333,26.7414286 C62.7526857,26.935 62.6643048,27.2507143 62.774781,27.5321429 C62.8844952,27.8135714 63.1702095,28 63.4894476,28 L74.2284952,28 C74.5477333,28 74.8334476,27.8135714 74.9439238,27.5321429 C75.0536381,27.2507143 74.9652571,26.9357143 74.7222095,26.7414286 C73.6098286,25.8564286 72.3214476,24.635 71.9884952,23.5221429 Z" transform="translate(-61 -12)"/>
</svg>
