<svg xmlns="http://www.w3.org/2000/svg" width="16" height="16" viewBox="0 0 16 16">
  <path fill="#000000" fill-rule="evenodd" d="M28,19.2 L24.8,19.2 L24.8,22.4 C24.8,23.2848 24.0848,24 23.2,24 L23.2,20.8 L21.6,20.8 L21.6,24 L18.4,24 L18.4,20.8 L16.8,20.8 L16.8,24 C15.9152,24 15.2,23.2848 15.2,22.4 L15.2,19.2 L12,19.2 L12,16 C12,11.5824 15.5808,8 20,8 C24.4192,8 28,11.5824 28,16 L28,19.2 Z M16.9531937,12.9531937 C16.0543492,12.9531937 15.3277968,13.679746 15.3277968,14.5785905 C15.3277968,15.4774349 16.0543492,16.2039873 16.9531937,16.2039873 C17.8520381,16.2039873 18.5785905,15.4774349 18.5785905,14.5785905 C18.5785905,13.679746 17.8520381,12.9531937 16.9531937,12.9531937 Z M23.454781,12.9531937 C22.5559365,12.9531937 21.8293841,13.679746 21.8293841,14.5785905 C21.8293841,15.4774349 22.5559365,16.2039873 23.454781,16.2039873 C24.3536254,16.2039873 25.0801778,15.4774349 25.0801778,14.5785905 C25.0801778,13.679746 24.3536254,12.9531937 23.454781,12.9531937 Z" transform="translate(-12 -8)"/>
</svg>
