<svg xmlns="http://www.w3.org/2000/svg" width="16" height="16" viewBox="0 0 16 16">
  <path fill="#EE9B0D" fill-rule="evenodd" d="M19,25 C23.418278,25 27,21.418278 27,17 C27,12.581722 23.418278,9 19,9 C14.581722,9 11,12.581722 11,17 C11,21.418278 14.581722,25 19,25 Z M22.3584106,13 L18.497937,13 C18.4118711,13 18.3332991,13.0485966 18.2946944,13.1255789 L16.4780009,16.7589659 C16.4428025,16.8293627 16.4464359,16.9129306 16.4879927,16.9799212 C16.5295496,17.0466847 16.6024444,17.0875603 16.6812435,17.0875603 L17.9195472,17.0875603 L16.0199671,21.3091017 C15.9765935,21.4053865 16.0056606,21.5191569 16.0899098,21.5831954 C16.1303312,21.6140792 16.1787007,21.629294 16.2270701,21.629294 C16.2786188,21.629294 16.3303946,21.6115812 16.3726327,21.5766099 L21.8227131,17.0348762 C21.8960621,16.9735628 21.9233125,16.8731905 21.8908391,16.7832641 C21.8581386,16.6933378 21.772754,16.6333869 21.6771505,16.6333869 L20.2921488,16.6333869 L22.54553,13.3556177 C22.5932182,13.2863563 22.5986683,13.1959758 22.5593823,13.1214914 C22.5200963,13.0467799 22.4426597,13 22.3584106,13 Z" transform="translate(-11 -9)"/>
</svg>
