<svg xmlns="http://www.w3.org/2000/svg" width="16" height="16" viewBox="0 0 16 16">
  <path fill="#D8201C" fill-rule="evenodd" d="M39.9090909,19.2730909 L43.5454545,19.2730909 L43.5454545,20.7276364 L46.4545455,20.7276364 L46.4545455,19.2730909 L50.0909091,19.2730909 C51.6952727,19.2730909 53,17.9683636 53,16.364 C53,14.7596364 51.6952727,13.4549091 50.0909091,13.4549091 C49.1956364,13.4549091 48.4029091,13.8701818 47.8683636,14.5094545 C47.6712727,13.0956364 46.4669091,12.0003636 45,12.0003636 C43.5330909,12.0003636 42.3287273,13.0956364 42.1316364,14.5094545 C41.5970909,13.8701818 40.8043636,13.4549091 39.9090909,13.4549091 C38.3047273,13.4549091 37,14.7596364 37,16.364 C37,17.9683636 38.3047273,19.2730909 39.9090909,19.2730909 Z M51.3664727,25.8966545 L51.2413818,25.8857455 C51.1933818,25.8857455 46.4544727,25.8602909 46.4544727,23.6370182 L46.4544727,22.9097455 L49.3635636,22.9097455 C49.7650182,22.9097455 50.0908364,22.5839273 50.0908364,22.1824727 C50.0908364,21.7810182 49.7650182,21.4552 49.3635636,21.4552 L40.6362909,21.4552 C40.2348364,21.4552 39.9090182,21.7810182 39.9090182,22.1824727 C39.9090182,22.5839273 40.2348364,22.9097455 40.6362909,22.9097455 L43.5453818,22.9097455 L43.5453818,23.6370182 C43.5453818,25.8537455 38.8064727,25.9533818 38.7584727,25.9533818 L38.6362909,25.9635636 C38.0559273,26.0632 37.6835636,26.5170182 37.7315636,27.0682909 C37.7788364,27.6173818 38.2268364,28.0006545 38.8210182,28.0006545 L51.1788364,28.0006545 C52.1206545,28.0006545 52.2508364,27.3373818 52.2682909,27.1352 C52.3192,26.5475636 51.9141091,25.9919273 51.3664727,25.8966545 Z" transform="translate(-37 -12)"/>
</svg>
