<svg xmlns="http://www.w3.org/2000/svg" width="16" height="16" viewBox="0 0 16 16">
  <path fill="#DA2828" fill-rule="evenodd" d="M18.463105,12 C18.2434794,12.0427361 18.0270644,12.0944569 17.814258,12.1547643 C18.5129958,12.7004769 19,13.9269684 19,15.3525153 C19,17.2855119 18.1045695,18.8525153 17,18.8525153 C15.8954305,18.8525153 15,17.2855119 15,15.3525153 C15,14.5986759 15.1361844,13.9004998 15.3678478,13.3292213 C13.3295715,14.7792034 12,17.1605903 12,19.8525153 C12,24.2707933 15.581722,27.8525153 20,27.8525153 C24.418278,27.8525153 28,24.2707933 28,19.8525153 C28,16.9615832 26.4665784,14.4288009 24.1687296,13.0231628 C24.1964436,13.0628275 24.2247483,13.0998949 24.2540283,13.1338874 C24.9685059,13.9633552 25.4241943,16.396949 23.7645264,16.396949 C22.6729736,16.396949 22.3100586,14.9898445 22.0401611,14.5518562 C21.7702637,14.1138679 20.4574564,12.298384 18.2618408,12.0944587 C18.3297991,12.0620858 18.3968828,12.0306049 18.463105,12 Z M20.238065,26.6389518 C22.34577,26.6389518 23.9001465,25.62854 24.4482422,24.5153158 C24.9963379,23.4020915 25.1488438,22.2436587 24.048007,21 C24.3488909,22.7388698 23.5603027,24.7557373 21.0307617,25.4891357 C19.0829652,26.053867 16,25.098999 16,25.098999 C16,25.098999 18.1303599,26.6389518 20.238065,26.6389518 Z" transform="translate(-12 -12)"/>
</svg>
